<svg width="420" height="198" viewBox="0 0 420 198" fill="none" xmlns="http://www.w3.org/2000/svg">
<g clip-path="url(#clip0_7_262)">
<circle cx="2.5" cy="2.5" r="2.5" fill="#00DE8E"/>
<circle cx="13.5" cy="2.5" r="2.5" fill="#00DE8E"/>
<circle cx="24.5" cy="2.5" r="2.5" fill="#00DE8E"/>
<circle cx="35.5" cy="2.5" r="2.5" fill="#00DE8E"/>
<circle cx="46.5" cy="2.5" r="2.5" fill="#00DE8E"/>
<circle cx="57.5" cy="2.5" r="2.5" fill="#00DE8E"/>
<circle cx="68.5" cy="2.5" r="2.5" fill="#00DE8E"/>
<circle cx="79.5" cy="2.5" r="2.5" fill="#00DE8E"/>
<circle cx="90.5" cy="2.5" r="2.5" fill="#00DE8E"/>
<circle cx="101.5" cy="2.5" r="2.5" fill="#00DE8E"/>
<circle cx="112.5" cy="2.5" r="2.5" fill="#00DE8E"/>
<circle cx="123.5" cy="2.5" r="2.5" fill="#00DE8E"/>
<circle cx="134.5" cy="2.5" r="2.5" fill="#00DE8E"/>
<circle cx="145.5" cy="2.5" r="2.5" fill="#00DE8E"/>
<circle cx="156.5" cy="2.5" r="2.5" fill="#00DE8E"/>
<circle cx="167.5" cy="2.5" r="2.5" fill="#00DE8E"/>
<circle cx="178.5" cy="2.5" r="2.5" fill="#00DE8E"/>
<circle cx="189.5" cy="2.5" r="2.5" fill="#00DE8E"/>
<circle cx="200.5" cy="2.5" r="2.5" fill="#00DE8E"/>
<circle cx="211.5" cy="2.5" r="2.5" fill="#00DE8E"/>
<circle cx="222.5" cy="2.5" r="2.5" fill="#00DE8E"/>
<circle cx="233.5" cy="2.5" r="2.5" fill="#00DE8E"/>
<circle cx="244.5" cy="2.5" r="2.5" fill="#00DE8E"/>
<circle cx="255.5" cy="2.5" r="2.5" fill="#00DE8E"/>
<circle cx="266.5" cy="2.5" r="2.5" fill="#00DE8E"/>
<circle cx="277.5" cy="2.5" r="2.5" fill="#00DE8E"/>
<circle cx="288.5" cy="2.5" r="2.5" fill="#00DE8E"/>
<circle cx="299.5" cy="2.5" r="2.5" fill="#00DE8E"/>
<circle cx="310.5" cy="2.5" r="2.5" fill="#00DE8E"/>
<circle cx="321.5" cy="2.5" r="2.5" fill="#00DE8E"/>
<circle cx="332.5" cy="2.5" r="2.5" fill="#00DE8E"/>
<circle cx="343.5" cy="2.5" r="2.5" fill="#00DE8E"/>
<circle cx="354.5" cy="2.5" r="2.5" fill="#00DE8E"/>
<circle cx="365.5" cy="2.5" r="2.5" fill="#00DE8E"/>
<circle cx="376.5" cy="2.5" r="2.5" fill="#00DE8E"/>
<circle cx="387.5" cy="2.5" r="2.5" fill="#00DE8E"/>
<circle cx="398.5" cy="2.5" r="2.5" fill="#00DE8E"/>
<circle cx="409.5" cy="2.5" r="2.5" fill="#00DE8E"/>
<circle cx="2.5" cy="13.5" r="2.5" fill="#00DE8E"/>
<circle cx="13.5" cy="13.5" r="2.5" fill="#00DE8E"/>
<circle cx="24.5" cy="13.5" r="2.5" fill="#00DE8E"/>
<circle cx="35.5" cy="13.5" r="2.5" fill="#00DE8E"/>
<circle cx="46.5" cy="13.5" r="2.5" fill="#00DE8E"/>
<circle cx="57.5" cy="13.5" r="2.5" fill="#00DE8E"/>
<circle cx="68.5" cy="13.5" r="2.5" fill="#00DE8E"/>
<circle cx="79.5" cy="13.5" r="2.5" fill="#00DE8E"/>
<circle cx="90.5" cy="13.5" r="2.5" fill="#00DE8E"/>
<circle cx="101.5" cy="13.5" r="2.5" fill="#00DE8E"/>
<circle cx="112.5" cy="13.5" r="2.5" fill="#00DE8E"/>
<circle cx="123.5" cy="13.5" r="2.5" fill="#00DE8E"/>
<circle cx="134.5" cy="13.5" r="2.5" fill="#00DE8E"/>
<circle cx="145.5" cy="13.5" r="2.5" fill="#00DE8E"/>
<circle cx="156.5" cy="13.5" r="2.5" fill="#00DE8E"/>
<circle cx="167.5" cy="13.5" r="2.5" fill="#00DE8E"/>
<circle cx="178.5" cy="13.5" r="2.5" fill="#00DE8E"/>
<circle cx="189.5" cy="13.5" r="2.5" fill="#00DE8E"/>
<circle cx="200.5" cy="13.5" r="2.5" fill="#00DE8E"/>
<circle cx="211.5" cy="13.5" r="2.5" fill="#00DE8E"/>
<circle cx="222.5" cy="13.5" r="2.5" fill="#00DE8E"/>
<circle cx="233.5" cy="13.5" r="2.5" fill="#00DE8E"/>
<circle cx="244.5" cy="13.5" r="2.5" fill="#00DE8E"/>
<circle cx="255.5" cy="13.5" r="2.5" fill="#00DE8E"/>
<circle cx="266.5" cy="13.5" r="2.5" fill="#00DE8E"/>
<circle cx="277.5" cy="13.5" r="2.5" fill="#00DE8E"/>
<circle cx="288.5" cy="13.5" r="2.5" fill="#00DE8E"/>
<circle cx="299.5" cy="13.5" r="2.5" fill="#00DE8E"/>
<circle cx="310.5" cy="13.5" r="2.5" fill="#00DE8E"/>
<circle cx="321.5" cy="13.5" r="2.5" fill="#00DE8E"/>
<circle cx="332.5" cy="13.5" r="2.5" fill="#00DE8E"/>
<circle cx="343.5" cy="13.5" r="2.5" fill="#00DE8E"/>
<circle cx="354.5" cy="13.5" r="2.5" fill="#00DE8E"/>
<circle cx="365.5" cy="13.5" r="2.5" fill="#00DE8E"/>
<circle cx="376.5" cy="13.5" r="2.5" fill="#00DE8E"/>
<circle cx="387.5" cy="13.5" r="2.5" fill="#00DE8E"/>
<circle cx="398.5" cy="13.5" r="2.5" fill="#00DE8E"/>
<circle cx="409.5" cy="13.5" r="2.5" fill="#00DE8E"/>
<circle cx="2.5" cy="24.5" r="2.5" fill="#00DE8E"/>
<circle cx="13.5" cy="24.5" r="2.5" fill="#00DE8E"/>
<circle cx="24.5" cy="24.5" r="2.5" fill="#00DE8E"/>
<circle cx="35.5" cy="24.5" r="2.5" fill="#00DE8E"/>
<circle cx="46.5" cy="24.5" r="2.5" fill="#00DE8E"/>
<circle cx="57.5" cy="24.5" r="2.5" fill="#00DE8E"/>
<circle cx="68.5" cy="24.5" r="2.5" fill="#00DE8E"/>
<circle cx="79.5" cy="24.5" r="2.5" fill="#00DE8E"/>
<circle cx="90.5" cy="24.5" r="2.5" fill="#00DE8E"/>
<circle cx="101.5" cy="24.5" r="2.5" fill="#00DE8E"/>
<circle cx="112.5" cy="24.5" r="2.5" fill="#00DE8E"/>
<circle cx="123.5" cy="24.5" r="2.5" fill="#00DE8E"/>
<circle cx="134.5" cy="24.5" r="2.5" fill="#00DE8E"/>
<circle cx="145.5" cy="24.5" r="2.5" fill="#00DE8E"/>
<circle cx="156.5" cy="24.5" r="2.5" fill="#00DE8E"/>
<circle cx="167.5" cy="24.5" r="2.5" fill="#00DE8E"/>
<circle cx="178.5" cy="24.5" r="2.5" fill="#00DE8E"/>
<circle cx="189.5" cy="24.5" r="2.5" fill="#00DE8E"/>
<circle cx="200.5" cy="24.5" r="2.5" fill="#00DE8E"/>
<circle cx="211.5" cy="24.5" r="2.5" fill="#00DE8E"/>
<circle cx="222.5" cy="24.5" r="2.5" fill="#00DE8E"/>
<circle cx="233.5" cy="24.5" r="2.5" fill="#00DE8E"/>
<circle cx="244.5" cy="24.5" r="2.5" fill="#00DE8E"/>
<circle cx="255.5" cy="24.5" r="2.5" fill="#00DE8E"/>
<circle cx="266.5" cy="24.5" r="2.5" fill="#00DE8E"/>
<circle cx="277.5" cy="24.5" r="2.5" fill="#00DE8E"/>
<circle cx="288.5" cy="24.5" r="2.5" fill="#00DE8E"/>
<circle cx="299.5" cy="24.5" r="2.5" fill="#00DE8E"/>
<circle cx="310.5" cy="24.5" r="2.5" fill="#00DE8E"/>
<circle cx="321.5" cy="24.5" r="2.5" fill="#00DE8E"/>
<circle cx="332.5" cy="24.5" r="2.5" fill="#00DE8E"/>
<circle cx="343.5" cy="24.5" r="2.5" fill="#00DE8E"/>
<circle cx="354.5" cy="24.5" r="2.5" fill="#00DE8E"/>
<circle cx="365.5" cy="24.5" r="2.5" fill="#00DE8E"/>
<circle cx="376.5" cy="24.5" r="2.5" fill="#00DE8E"/>
<circle cx="387.5" cy="24.5" r="2.5" fill="#00DE8E"/>
<circle cx="398.5" cy="24.5" r="2.5" fill="#00DE8E"/>
<circle cx="409.5" cy="24.5" r="2.5" fill="#00DE8E"/>
<circle cx="2.5" cy="35.5" r="2.5" fill="#00DE8E"/>
<circle cx="13.5" cy="35.5" r="2.5" fill="#00DE8E"/>
<circle cx="24.5" cy="35.5" r="2.5" fill="#00DE8E"/>
<circle cx="35.5" cy="35.5" r="2.5" fill="#00DE8E"/>
<circle cx="46.5" cy="35.5" r="2.5" fill="#00DE8E"/>
<circle cx="57.5" cy="35.5" r="2.5" fill="#00DE8E"/>
<circle cx="68.5" cy="35.5" r="2.5" fill="#00DE8E"/>
<circle cx="79.5" cy="35.5" r="2.5" fill="#00DE8E"/>
<circle cx="90.5" cy="35.5" r="2.5" fill="#00DE8E"/>
<circle cx="101.5" cy="35.5" r="2.5" fill="#00DE8E"/>
<circle cx="112.5" cy="35.5" r="2.5" fill="#00DE8E"/>
<circle cx="123.5" cy="35.5" r="2.5" fill="#00DE8E"/>
<circle cx="134.5" cy="35.5" r="2.5" fill="#00DE8E"/>
<circle cx="145.5" cy="35.5" r="2.5" fill="#00DE8E"/>
<circle cx="156.5" cy="35.5" r="2.5" fill="#00DE8E"/>
<circle cx="167.5" cy="35.5" r="2.5" fill="#00DE8E"/>
<circle cx="178.5" cy="35.5" r="2.5" fill="#00DE8E"/>
<circle cx="189.5" cy="35.5" r="2.5" fill="#00DE8E"/>
<circle cx="200.5" cy="35.5" r="2.5" fill="#00DE8E"/>
<circle cx="211.5" cy="35.5" r="2.5" fill="#00DE8E"/>
<circle cx="222.5" cy="35.5" r="2.5" fill="#00DE8E"/>
<circle cx="233.5" cy="35.5" r="2.5" fill="#00DE8E"/>
<circle cx="244.5" cy="35.5" r="2.5" fill="#00DE8E"/>
<circle cx="255.5" cy="35.5" r="2.5" fill="#00DE8E"/>
<circle cx="266.5" cy="35.5" r="2.5" fill="#00DE8E"/>
<circle cx="277.5" cy="35.5" r="2.5" fill="#00DE8E"/>
<circle cx="288.5" cy="35.5" r="2.5" fill="#00DE8E"/>
<circle cx="299.5" cy="35.5" r="2.5" fill="#00DE8E"/>
<circle cx="310.5" cy="35.5" r="2.5" fill="#00DE8E"/>
<circle cx="321.5" cy="35.5" r="2.5" fill="#00DE8E"/>
<circle cx="332.5" cy="35.5" r="2.5" fill="#00DE8E"/>
<circle cx="343.5" cy="35.5" r="2.5" fill="#00DE8E"/>
<circle cx="354.5" cy="35.5" r="2.5" fill="#00DE8E"/>
<circle cx="365.5" cy="35.5" r="2.5" fill="#00DE8E"/>
<circle cx="376.5" cy="35.5" r="2.5" fill="#00DE8E"/>
<circle cx="387.5" cy="35.5" r="2.5" fill="#00DE8E"/>
<circle cx="398.5" cy="35.5" r="2.5" fill="#00DE8E"/>
<circle cx="409.5" cy="35.5" r="2.5" fill="#00DE8E"/>
<circle cx="2.5" cy="46.5" r="2.5" fill="#00DE8E"/>
<circle cx="13.5" cy="46.5" r="2.5" fill="#00DE8E"/>
<circle cx="24.5" cy="46.5" r="2.5" fill="#00DE8E"/>
<circle cx="35.5" cy="46.5" r="2.5" fill="#00DE8E"/>
<circle cx="46.5" cy="46.5" r="2.5" fill="#00DE8E"/>
<circle cx="57.5" cy="46.5" r="2.5" fill="#00DE8E"/>
<circle cx="68.5" cy="46.5" r="2.5" fill="#00DE8E"/>
<circle cx="79.5" cy="46.5" r="2.5" fill="#00DE8E"/>
<circle cx="90.5" cy="46.5" r="2.5" fill="#00DE8E"/>
<circle cx="101.5" cy="46.5" r="2.5" fill="#00DE8E"/>
<circle cx="112.5" cy="46.5" r="2.5" fill="#00DE8E"/>
<circle cx="123.5" cy="46.5" r="2.5" fill="#00DE8E"/>
<circle cx="134.5" cy="46.5" r="2.5" fill="#00DE8E"/>
<circle cx="145.5" cy="46.5" r="2.5" fill="#00DE8E"/>
<circle cx="156.5" cy="46.5" r="2.5" fill="#00DE8E"/>
<circle cx="167.5" cy="46.5" r="2.5" fill="#00DE8E"/>
<circle cx="178.5" cy="46.5" r="2.5" fill="#00DE8E"/>
<circle cx="189.5" cy="46.5" r="2.5" fill="#00DE8E"/>
<circle cx="200.5" cy="46.5" r="2.5" fill="#00DE8E"/>
<circle cx="211.5" cy="46.5" r="2.5" fill="#00DE8E"/>
<circle cx="222.5" cy="46.5" r="2.5" fill="#00DE8E"/>
<circle cx="233.5" cy="46.5" r="2.5" fill="#00DE8E"/>
<circle cx="244.5" cy="46.5" r="2.5" fill="#00DE8E"/>
<circle cx="255.5" cy="46.5" r="2.5" fill="#00DE8E"/>
<circle cx="266.5" cy="46.5" r="2.5" fill="#00DE8E"/>
<circle cx="277.5" cy="46.5" r="2.5" fill="#00DE8E"/>
<circle cx="288.5" cy="46.5" r="2.5" fill="#00DE8E"/>
<circle cx="299.5" cy="46.5" r="2.5" fill="#00DE8E"/>
<circle cx="310.5" cy="46.5" r="2.5" fill="#00DE8E"/>
<circle cx="321.5" cy="46.5" r="2.5" fill="#00DE8E"/>
<circle cx="332.5" cy="46.5" r="2.5" fill="#00DE8E"/>
<circle cx="343.5" cy="46.5" r="2.5" fill="#00DE8E"/>
<circle cx="354.5" cy="46.5" r="2.5" fill="#00DE8E"/>
<circle cx="365.5" cy="46.5" r="2.5" fill="#00DE8E"/>
<circle cx="376.5" cy="46.5" r="2.5" fill="#00DE8E"/>
<circle cx="387.5" cy="46.5" r="2.5" fill="#00DE8E"/>
<circle cx="398.5" cy="46.5" r="2.5" fill="#00DE8E"/>
<circle cx="409.5" cy="46.5" r="2.5" fill="#00DE8E"/>
<circle cx="2.5" cy="57.5" r="2.5" fill="#00DE8E"/>
<circle cx="13.5" cy="57.5" r="2.5" fill="#00DE8E"/>
<circle cx="24.5" cy="57.5" r="2.5" fill="#00DE8E"/>
<circle cx="35.5" cy="57.5" r="2.5" fill="#00DE8E"/>
<circle cx="46.5" cy="57.5" r="2.5" fill="#00DE8E"/>
<circle cx="57.5" cy="57.5" r="2.5" fill="#00DE8E"/>
<circle cx="68.5" cy="57.5" r="2.5" fill="#00DE8E"/>
<circle cx="79.5" cy="57.5" r="2.5" fill="#00DE8E"/>
<circle cx="90.5" cy="57.5" r="2.5" fill="#00DE8E"/>
<circle cx="101.5" cy="57.5" r="2.5" fill="#00DE8E"/>
<circle cx="112.5" cy="57.5" r="2.5" fill="#00DE8E"/>
<circle cx="123.5" cy="57.5" r="2.5" fill="#00DE8E"/>
<circle cx="134.5" cy="57.5" r="2.5" fill="#00DE8E"/>
<circle cx="145.5" cy="57.5" r="2.5" fill="#00DE8E"/>
<circle cx="156.5" cy="57.5" r="2.5" fill="#00DE8E"/>
<circle cx="167.5" cy="57.5" r="2.5" fill="#00DE8E"/>
<circle cx="178.5" cy="57.5" r="2.5" fill="#00DE8E"/>
<circle cx="189.5" cy="57.5" r="2.5" fill="#00DE8E"/>
<circle cx="200.5" cy="57.5" r="2.5" fill="#00DE8E"/>
<circle cx="211.5" cy="57.5" r="2.5" fill="#00DE8E"/>
<circle cx="222.5" cy="57.5" r="2.5" fill="#00DE8E"/>
<circle cx="233.5" cy="57.5" r="2.5" fill="#00DE8E"/>
<circle cx="244.5" cy="57.5" r="2.5" fill="#00DE8E"/>
<circle cx="255.5" cy="57.5" r="2.5" fill="#00DE8E"/>
<circle cx="266.5" cy="57.5" r="2.5" fill="#00DE8E"/>
<circle cx="277.5" cy="57.5" r="2.5" fill="#00DE8E"/>
<circle cx="288.5" cy="57.5" r="2.5" fill="#00DE8E"/>
<circle cx="299.5" cy="57.5" r="2.5" fill="#00DE8E"/>
<circle cx="310.5" cy="57.5" r="2.5" fill="#00DE8E"/>
<circle cx="321.5" cy="57.5" r="2.5" fill="#00DE8E"/>
<circle cx="332.5" cy="57.5" r="2.5" fill="#00DE8E"/>
<circle cx="343.5" cy="57.5" r="2.5" fill="#00DE8E"/>
<circle cx="354.5" cy="57.5" r="2.5" fill="#00DE8E"/>
<circle cx="365.5" cy="57.5" r="2.5" fill="#00DE8E"/>
<circle cx="376.5" cy="57.5" r="2.5" fill="#00DE8E"/>
<circle cx="387.5" cy="57.5" r="2.5" fill="#00DE8E"/>
<circle cx="398.5" cy="57.5" r="2.5" fill="#00DE8E"/>
<circle cx="409.5" cy="57.5" r="2.5" fill="#00DE8E"/>
<circle cx="2.5" cy="68.5" r="2.5" fill="#00DE8E"/>
<circle cx="13.5" cy="68.5" r="2.5" fill="#00DE8E"/>
<circle cx="24.5" cy="68.5" r="2.5" fill="#00DE8E"/>
<circle cx="35.5" cy="68.5" r="2.5" fill="#00DE8E"/>
<circle cx="46.5" cy="68.5" r="2.5" fill="#00DE8E"/>
<circle cx="57.5" cy="68.5" r="2.5" fill="#00DE8E"/>
<circle cx="68.5" cy="68.5" r="2.5" fill="#00DE8E"/>
<circle cx="79.5" cy="68.5" r="2.5" fill="#00DE8E"/>
<circle cx="90.5" cy="68.5" r="2.5" fill="#00DE8E"/>
<circle cx="101.5" cy="68.5" r="2.5" fill="#00DE8E"/>
<circle cx="112.5" cy="68.5" r="2.5" fill="#00DE8E"/>
<circle cx="123.5" cy="68.5" r="2.5" fill="#00DE8E"/>
<circle cx="134.5" cy="68.5" r="2.5" fill="#00DE8E"/>
<circle cx="145.5" cy="68.5" r="2.5" fill="#00DE8E"/>
<circle cx="156.5" cy="68.5" r="2.5" fill="#00DE8E"/>
<circle cx="167.5" cy="68.5" r="2.5" fill="#00DE8E"/>
<circle cx="178.5" cy="68.5" r="2.5" fill="#00DE8E"/>
<circle cx="189.5" cy="68.5" r="2.5" fill="#00DE8E"/>
<circle cx="200.5" cy="68.5" r="2.5" fill="#00DE8E"/>
<circle cx="211.5" cy="68.5" r="2.5" fill="#00DE8E"/>
<circle cx="222.5" cy="68.5" r="2.5" fill="#00DE8E"/>
<circle cx="233.5" cy="68.5" r="2.5" fill="#00DE8E"/>
<circle cx="244.5" cy="68.5" r="2.5" fill="#00DE8E"/>
<circle cx="255.5" cy="68.5" r="2.5" fill="#00DE8E"/>
<circle cx="266.5" cy="68.5" r="2.5" fill="#00DE8E"/>
<circle cx="277.5" cy="68.5" r="2.5" fill="#00DE8E"/>
<circle cx="288.5" cy="68.5" r="2.5" fill="#00DE8E"/>
<circle cx="299.5" cy="68.5" r="2.5" fill="#00DE8E"/>
<circle cx="310.5" cy="68.5" r="2.5" fill="#00DE8E"/>
<circle cx="321.5" cy="68.5" r="2.5" fill="#00DE8E"/>
<circle cx="332.5" cy="68.5" r="2.5" fill="#00DE8E"/>
<circle cx="343.5" cy="68.5" r="2.5" fill="#00DE8E"/>
<circle cx="354.5" cy="68.5" r="2.5" fill="#00DE8E"/>
<circle cx="365.5" cy="68.5" r="2.5" fill="#00DE8E"/>
<circle cx="376.5" cy="68.5" r="2.5" fill="#00DE8E"/>
<circle cx="387.5" cy="68.5" r="2.5" fill="#00DE8E"/>
<circle cx="398.5" cy="68.5" r="2.5" fill="#00DE8E"/>
<circle cx="409.5" cy="68.5" r="2.5" fill="#00DE8E"/>
<circle cx="2.5" cy="79.5" r="2.5" fill="#00DE8E"/>
<circle cx="13.5" cy="79.5" r="2.5" fill="#00DE8E"/>
<circle cx="24.5" cy="79.5" r="2.5" fill="#00DE8E"/>
<circle cx="35.5" cy="79.5" r="2.5" fill="#00DE8E"/>
<circle cx="46.5" cy="79.5" r="2.5" fill="#00DE8E"/>
<circle cx="57.5" cy="79.5" r="2.5" fill="#00DE8E"/>
<circle cx="68.5" cy="79.5" r="2.5" fill="#00DE8E"/>
<circle cx="79.5" cy="79.5" r="2.5" fill="#00DE8E"/>
<circle cx="90.5" cy="79.5" r="2.5" fill="#00DE8E"/>
<circle cx="101.5" cy="79.5" r="2.5" fill="#00DE8E"/>
<circle cx="112.5" cy="79.5" r="2.5" fill="#00DE8E"/>
<circle cx="123.5" cy="79.5" r="2.5" fill="#00DE8E"/>
<circle cx="134.5" cy="79.5" r="2.5" fill="#00DE8E"/>
<circle cx="145.5" cy="79.5" r="2.5" fill="#00DE8E"/>
<circle cx="156.5" cy="79.5" r="2.5" fill="#00DE8E"/>
<circle cx="167.5" cy="79.5" r="2.5" fill="#00DE8E"/>
<circle cx="178.5" cy="79.5" r="2.5" fill="#00DE8E"/>
<circle cx="189.5" cy="79.5" r="2.5" fill="#00DE8E"/>
<circle cx="200.5" cy="79.5" r="2.5" fill="#00DE8E"/>
<circle cx="211.5" cy="79.5" r="2.5" fill="#00DE8E"/>
<circle cx="222.5" cy="79.5" r="2.5" fill="#00DE8E"/>
<circle cx="233.5" cy="79.5" r="2.5" fill="#00DE8E"/>
<circle cx="244.5" cy="79.5" r="2.5" fill="#00DE8E"/>
<circle cx="255.5" cy="79.5" r="2.5" fill="#00DE8E"/>
<circle cx="266.5" cy="79.5" r="2.5" fill="#00DE8E"/>
<circle cx="277.5" cy="79.5" r="2.5" fill="#00DE8E"/>
<circle cx="288.5" cy="79.5" r="2.5" fill="#00DE8E"/>
<circle cx="299.5" cy="79.5" r="2.5" fill="#00DE8E"/>
<circle cx="310.5" cy="79.5" r="2.5" fill="#00DE8E"/>
<circle cx="321.5" cy="79.5" r="2.5" fill="#00DE8E"/>
<circle cx="332.5" cy="79.5" r="2.5" fill="#00DE8E"/>
<circle cx="343.5" cy="79.5" r="2.5" fill="#00DE8E"/>
<circle cx="354.5" cy="79.5" r="2.5" fill="#00DE8E"/>
<circle cx="365.5" cy="79.5" r="2.5" fill="#00DE8E"/>
<circle cx="376.5" cy="79.5" r="2.5" fill="#00DE8E"/>
<circle cx="387.5" cy="79.5" r="2.5" fill="#00DE8E"/>
<circle cx="398.5" cy="79.5" r="2.5" fill="#00DE8E"/>
<circle cx="409.5" cy="79.5" r="2.5" fill="#00DE8E"/>
<circle cx="2.5" cy="90.5" r="2.5" fill="#00DE8E"/>
<circle cx="13.5" cy="90.5" r="2.5" fill="#00DE8E"/>
<circle cx="24.5" cy="90.5" r="2.5" fill="#00DE8E"/>
<circle cx="35.5" cy="90.5" r="2.5" fill="#00DE8E"/>
<circle cx="46.5" cy="90.5" r="2.5" fill="#00DE8E"/>
<circle cx="57.5" cy="90.5" r="2.5" fill="#00DE8E"/>
<circle cx="68.5" cy="90.5" r="2.5" fill="#00DE8E"/>
<circle cx="79.5" cy="90.5" r="2.5" fill="#00DE8E"/>
<circle cx="90.5" cy="90.5" r="2.5" fill="#00DE8E"/>
<circle cx="101.5" cy="90.5" r="2.5" fill="#00DE8E"/>
<circle cx="112.5" cy="90.5" r="2.5" fill="#00DE8E"/>
<circle cx="123.5" cy="90.5" r="2.5" fill="#00DE8E"/>
<circle cx="134.5" cy="90.5" r="2.5" fill="#00DE8E"/>
<circle cx="145.5" cy="90.5" r="2.5" fill="#00DE8E"/>
<circle cx="156.5" cy="90.5" r="2.5" fill="#00DE8E"/>
<circle cx="167.5" cy="90.5" r="2.5" fill="#00DE8E"/>
<circle cx="178.5" cy="90.5" r="2.5" fill="#00DE8E"/>
<circle cx="189.5" cy="90.5" r="2.5" fill="#00DE8E"/>
<circle cx="200.5" cy="90.5" r="2.5" fill="#00DE8E"/>
<circle cx="211.5" cy="90.5" r="2.5" fill="#00DE8E"/>
<circle cx="222.5" cy="90.5" r="2.5" fill="#00DE8E"/>
<circle cx="233.5" cy="90.5" r="2.5" fill="#00DE8E"/>
<circle cx="244.5" cy="90.5" r="2.5" fill="#00DE8E"/>
<circle cx="255.5" cy="90.5" r="2.5" fill="#00DE8E"/>
<circle cx="266.5" cy="90.5" r="2.5" fill="#00DE8E"/>
<circle cx="277.5" cy="90.5" r="2.5" fill="#00DE8E"/>
<circle cx="288.5" cy="90.5" r="2.5" fill="#00DE8E"/>
<circle cx="299.5" cy="90.5" r="2.5" fill="#00DE8E"/>
<circle cx="310.5" cy="90.5" r="2.5" fill="#00DE8E"/>
<circle cx="321.5" cy="90.5" r="2.5" fill="#00DE8E"/>
<circle cx="332.5" cy="90.5" r="2.5" fill="#00DE8E"/>
<circle cx="343.5" cy="90.5" r="2.5" fill="#00DE8E"/>
<circle cx="354.5" cy="90.5" r="2.5" fill="#00DE8E"/>
<circle cx="365.5" cy="90.5" r="2.5" fill="#00DE8E"/>
<circle cx="376.5" cy="90.5" r="2.5" fill="#00DE8E"/>
<circle cx="387.5" cy="90.5" r="2.5" fill="#00DE8E"/>
<circle cx="398.5" cy="90.5" r="2.5" fill="#00DE8E"/>
<circle cx="409.5" cy="90.5" r="2.5" fill="#00DE8E"/>
<circle cx="2.5" cy="101.5" r="2.5" fill="#00DE8E"/>
<circle cx="13.5" cy="101.5" r="2.5" fill="#00DE8E"/>
<circle cx="24.5" cy="101.5" r="2.5" fill="#00DE8E"/>
<circle cx="35.5" cy="101.5" r="2.5" fill="#00DE8E"/>
<circle cx="46.5" cy="101.5" r="2.5" fill="#00DE8E"/>
<circle cx="57.5" cy="101.5" r="2.5" fill="#00DE8E"/>
<circle cx="68.5" cy="101.5" r="2.5" fill="#00DE8E"/>
<circle cx="79.5" cy="101.5" r="2.5" fill="#00DE8E"/>
<circle cx="90.5" cy="101.5" r="2.5" fill="#00DE8E"/>
<circle cx="101.5" cy="101.5" r="2.5" fill="#00DE8E"/>
<circle cx="112.5" cy="101.5" r="2.5" fill="#00DE8E"/>
<circle cx="123.5" cy="101.5" r="2.5" fill="#00DE8E"/>
<circle cx="134.5" cy="101.5" r="2.5" fill="#00DE8E"/>
<circle cx="145.5" cy="101.5" r="2.5" fill="#00DE8E"/>
<circle cx="156.5" cy="101.5" r="2.5" fill="#00DE8E"/>
<circle cx="167.5" cy="101.5" r="2.5" fill="#00DE8E"/>
<circle cx="178.5" cy="101.5" r="2.5" fill="#00DE8E"/>
<circle cx="189.5" cy="101.5" r="2.5" fill="#00DE8E"/>
<circle cx="200.5" cy="101.5" r="2.5" fill="#00DE8E"/>
<circle cx="211.5" cy="101.5" r="2.5" fill="#00DE8E"/>
<circle cx="222.5" cy="101.5" r="2.5" fill="#00DE8E"/>
<circle cx="233.5" cy="101.5" r="2.5" fill="#00DE8E"/>
<circle cx="244.5" cy="101.5" r="2.5" fill="#00DE8E"/>
<circle cx="255.5" cy="101.5" r="2.5" fill="#00DE8E"/>
<circle cx="266.5" cy="101.5" r="2.5" fill="#00DE8E"/>
<circle cx="277.5" cy="101.5" r="2.5" fill="#00DE8E"/>
<circle cx="288.5" cy="101.5" r="2.5" fill="#00DE8E"/>
<circle cx="299.5" cy="101.5" r="2.5" fill="#00DE8E"/>
<circle cx="310.5" cy="101.5" r="2.5" fill="#00DE8E"/>
<circle cx="321.5" cy="101.5" r="2.5" fill="#00DE8E"/>
<circle cx="332.5" cy="101.5" r="2.5" fill="#00DE8E"/>
<circle cx="343.5" cy="101.5" r="2.5" fill="#00DE8E"/>
<circle cx="354.5" cy="101.5" r="2.5" fill="#00DE8E"/>
<circle cx="365.5" cy="101.5" r="2.5" fill="#00DE8E"/>
<circle cx="376.5" cy="101.5" r="2.5" fill="#00DE8E"/>
<circle cx="387.5" cy="101.5" r="2.5" fill="#00DE8E"/>
<circle cx="398.5" cy="101.5" r="2.5" fill="#00DE8E"/>
<circle cx="409.5" cy="101.5" r="2.5" fill="#00DE8E"/>
<circle cx="2.5" cy="112.5" r="2.5" fill="#00DE8E"/>
<circle cx="13.5" cy="112.5" r="2.5" fill="#00DE8E"/>
<circle cx="24.5" cy="112.5" r="2.5" fill="#00DE8E"/>
<circle cx="35.5" cy="112.5" r="2.5" fill="#00DE8E"/>
<circle cx="46.5" cy="112.5" r="2.5" fill="#00DE8E"/>
<circle cx="57.5" cy="112.5" r="2.5" fill="#00DE8E"/>
<circle cx="68.5" cy="112.5" r="2.5" fill="#00DE8E"/>
<circle cx="79.5" cy="112.5" r="2.5" fill="#00DE8E"/>
<circle cx="90.5" cy="112.5" r="2.5" fill="#00DE8E"/>
<circle cx="101.5" cy="112.5" r="2.5" fill="#00DE8E"/>
<circle cx="112.5" cy="112.5" r="2.5" fill="#00DE8E"/>
<circle cx="123.5" cy="112.5" r="2.5" fill="#00DE8E"/>
<circle cx="134.5" cy="112.5" r="2.5" fill="#00DE8E"/>
<circle cx="145.5" cy="112.5" r="2.5" fill="#00DE8E"/>
<circle cx="156.5" cy="112.5" r="2.5" fill="#00DE8E"/>
<circle cx="167.5" cy="112.5" r="2.5" fill="#00DE8E"/>
<circle cx="178.5" cy="112.5" r="2.5" fill="#00DE8E"/>
<circle cx="189.5" cy="112.5" r="2.5" fill="#00DE8E"/>
<circle cx="200.5" cy="112.5" r="2.5" fill="#00DE8E"/>
<circle cx="211.5" cy="112.5" r="2.5" fill="#00DE8E"/>
<circle cx="222.5" cy="112.5" r="2.5" fill="#00DE8E"/>
<circle cx="233.5" cy="112.5" r="2.5" fill="#00DE8E"/>
<circle cx="244.5" cy="112.5" r="2.5" fill="#00DE8E"/>
<circle cx="255.5" cy="112.5" r="2.5" fill="#00DE8E"/>
<circle cx="266.5" cy="112.5" r="2.5" fill="#00DE8E"/>
<circle cx="277.5" cy="112.5" r="2.5" fill="#00DE8E"/>
<circle cx="288.5" cy="112.5" r="2.5" fill="#00DE8E"/>
<circle cx="299.5" cy="112.5" r="2.5" fill="#00DE8E"/>
<circle cx="310.5" cy="112.5" r="2.5" fill="#00DE8E"/>
<circle cx="321.5" cy="112.5" r="2.5" fill="#00DE8E"/>
<circle cx="332.5" cy="112.5" r="2.5" fill="#00DE8E"/>
<circle cx="343.5" cy="112.5" r="2.5" fill="#00DE8E"/>
<circle cx="354.5" cy="112.5" r="2.5" fill="#00DE8E"/>
<circle cx="365.5" cy="112.5" r="2.5" fill="#00DE8E"/>
<circle cx="376.5" cy="112.5" r="2.5" fill="#00DE8E"/>
<circle cx="387.5" cy="112.5" r="2.5" fill="#00DE8E"/>
<circle cx="398.5" cy="112.5" r="2.5" fill="#00DE8E"/>
<circle cx="409.5" cy="112.5" r="2.5" fill="#00DE8E"/>
<circle cx="2.5" cy="123.5" r="2.5" fill="#00DE8E"/>
<circle cx="13.5" cy="123.5" r="2.5" fill="#00DE8E"/>
<circle cx="24.5" cy="123.5" r="2.5" fill="#00DE8E"/>
<circle cx="35.5" cy="123.5" r="2.5" fill="#00DE8E"/>
<circle cx="46.5" cy="123.5" r="2.5" fill="#00DE8E"/>
<circle cx="57.5" cy="123.5" r="2.5" fill="#00DE8E"/>
<circle cx="68.5" cy="123.5" r="2.5" fill="#00DE8E"/>
<circle cx="79.5" cy="123.5" r="2.5" fill="#00DE8E"/>
<circle cx="90.5" cy="123.5" r="2.5" fill="#00DE8E"/>
<circle cx="101.5" cy="123.5" r="2.5" fill="#00DE8E"/>
<circle cx="112.5" cy="123.5" r="2.5" fill="#00DE8E"/>
<circle cx="123.5" cy="123.5" r="2.5" fill="#00DE8E"/>
<circle cx="134.5" cy="123.5" r="2.5" fill="#00DE8E"/>
<circle cx="145.5" cy="123.5" r="2.5" fill="#00DE8E"/>
<circle cx="156.5" cy="123.5" r="2.5" fill="#00DE8E"/>
<circle cx="167.5" cy="123.5" r="2.5" fill="#00DE8E"/>
<circle cx="178.5" cy="123.5" r="2.5" fill="#00DE8E"/>
<circle cx="189.5" cy="123.5" r="2.5" fill="#00DE8E"/>
<circle cx="200.5" cy="123.5" r="2.5" fill="#00DE8E"/>
<circle cx="211.5" cy="123.5" r="2.5" fill="#00DE8E"/>
<circle cx="222.5" cy="123.5" r="2.5" fill="#00DE8E"/>
<circle cx="233.5" cy="123.5" r="2.5" fill="#00DE8E"/>
<circle cx="244.5" cy="123.5" r="2.5" fill="#00DE8E"/>
<circle cx="255.5" cy="123.5" r="2.5" fill="#00DE8E"/>
<circle cx="266.5" cy="123.5" r="2.5" fill="#00DE8E"/>
<circle cx="277.5" cy="123.5" r="2.5" fill="#00DE8E"/>
<circle cx="288.5" cy="123.5" r="2.5" fill="#00DE8E"/>
<circle cx="299.5" cy="123.5" r="2.5" fill="#00DE8E"/>
<circle cx="310.5" cy="123.5" r="2.5" fill="#00DE8E"/>
<circle cx="321.5" cy="123.5" r="2.5" fill="#00DE8E"/>
<circle cx="332.5" cy="123.5" r="2.5" fill="#00DE8E"/>
<circle cx="343.5" cy="123.5" r="2.5" fill="#00DE8E"/>
<circle cx="354.5" cy="123.5" r="2.5" fill="#00DE8E"/>
<circle cx="365.5" cy="123.5" r="2.5" fill="#00DE8E"/>
<circle cx="376.5" cy="123.5" r="2.5" fill="#00DE8E"/>
<circle cx="387.5" cy="123.5" r="2.5" fill="#00DE8E"/>
<circle cx="398.5" cy="123.5" r="2.5" fill="#00DE8E"/>
<circle cx="409.5" cy="123.5" r="2.5" fill="#00DE8E"/>
<circle cx="2.5" cy="134.5" r="2.5" fill="#00DE8E"/>
<circle cx="13.5" cy="134.5" r="2.5" fill="#00DE8E"/>
<circle cx="24.5" cy="134.5" r="2.5" fill="#00DE8E"/>
<circle cx="35.5" cy="134.5" r="2.5" fill="#00DE8E"/>
<circle cx="46.5" cy="134.5" r="2.5" fill="#00DE8E"/>
<circle cx="57.5" cy="134.5" r="2.5" fill="#00DE8E"/>
<circle cx="68.5" cy="134.5" r="2.5" fill="#00DE8E"/>
<circle cx="79.5" cy="134.5" r="2.5" fill="#00DE8E"/>
<circle cx="90.5" cy="134.5" r="2.5" fill="#00DE8E"/>
<circle cx="101.5" cy="134.5" r="2.5" fill="#00DE8E"/>
<circle cx="112.5" cy="134.5" r="2.5" fill="#00DE8E"/>
<circle cx="123.5" cy="134.5" r="2.5" fill="#00DE8E"/>
<circle cx="134.5" cy="134.5" r="2.5" fill="#00DE8E"/>
<circle cx="145.5" cy="134.5" r="2.5" fill="#00DE8E"/>
<circle cx="156.5" cy="134.5" r="2.5" fill="#00DE8E"/>
<circle cx="167.5" cy="134.5" r="2.5" fill="#00DE8E"/>
<circle cx="178.5" cy="134.5" r="2.5" fill="#00DE8E"/>
<circle cx="189.5" cy="134.5" r="2.5" fill="#00DE8E"/>
<circle cx="200.5" cy="134.5" r="2.5" fill="#00DE8E"/>
<circle cx="211.5" cy="134.5" r="2.5" fill="#00DE8E"/>
<circle cx="222.5" cy="134.5" r="2.5" fill="#00DE8E"/>
<circle cx="233.5" cy="134.5" r="2.5" fill="#00DE8E"/>
<circle cx="244.5" cy="134.5" r="2.5" fill="#00DE8E"/>
<circle cx="255.5" cy="134.5" r="2.5" fill="#00DE8E"/>
<circle cx="266.5" cy="134.5" r="2.5" fill="#00DE8E"/>
<circle cx="277.5" cy="134.5" r="2.5" fill="#00DE8E"/>
<circle cx="288.5" cy="134.5" r="2.5" fill="#00DE8E"/>
<circle cx="299.5" cy="134.5" r="2.5" fill="#00DE8E"/>
<circle cx="310.5" cy="134.5" r="2.5" fill="#00DE8E"/>
<circle cx="321.5" cy="134.5" r="2.5" fill="#00DE8E"/>
<circle cx="332.5" cy="134.5" r="2.5" fill="#00DE8E"/>
<circle cx="343.5" cy="134.5" r="2.5" fill="#00DE8E"/>
<circle cx="354.5" cy="134.5" r="2.5" fill="#00DE8E"/>
<circle cx="365.5" cy="134.5" r="2.5" fill="#00DE8E"/>
<circle cx="376.5" cy="134.5" r="2.5" fill="#00DE8E"/>
<circle cx="387.5" cy="134.5" r="2.5" fill="#00DE8E"/>
<circle cx="398.5" cy="134.5" r="2.5" fill="#00DE8E"/>
<circle cx="409.5" cy="134.5" r="2.5" fill="#00DE8E"/>
<circle cx="2.5" cy="145.5" r="2.5" fill="#00DE8E"/>
<circle cx="13.5" cy="145.5" r="2.5" fill="#00DE8E"/>
<circle cx="24.5" cy="145.5" r="2.5" fill="#00DE8E"/>
<circle cx="35.5" cy="145.5" r="2.5" fill="#00DE8E"/>
<circle cx="46.5" cy="145.5" r="2.5" fill="#00DE8E"/>
<circle cx="57.5" cy="145.5" r="2.5" fill="#00DE8E"/>
<circle cx="68.5" cy="145.5" r="2.5" fill="#00DE8E"/>
<circle cx="79.5" cy="145.5" r="2.5" fill="#00DE8E"/>
<circle cx="90.5" cy="145.5" r="2.5" fill="#00DE8E"/>
<circle cx="101.5" cy="145.5" r="2.5" fill="#00DE8E"/>
<circle cx="112.5" cy="145.5" r="2.5" fill="#00DE8E"/>
<circle cx="123.5" cy="145.5" r="2.5" fill="#00DE8E"/>
<circle cx="134.5" cy="145.5" r="2.5" fill="#00DE8E"/>
<circle cx="145.5" cy="145.5" r="2.5" fill="#00DE8E"/>
<circle cx="156.5" cy="145.5" r="2.5" fill="#00DE8E"/>
<circle cx="167.5" cy="145.5" r="2.5" fill="#00DE8E"/>
<circle cx="178.5" cy="145.5" r="2.5" fill="#00DE8E"/>
<circle cx="189.5" cy="145.5" r="2.5" fill="#00DE8E"/>
<circle cx="200.5" cy="145.5" r="2.5" fill="#00DE8E"/>
<circle cx="211.5" cy="145.5" r="2.5" fill="#00DE8E"/>
<circle cx="222.5" cy="145.5" r="2.5" fill="#00DE8E"/>
<circle cx="233.5" cy="145.5" r="2.5" fill="#00DE8E"/>
<circle cx="244.5" cy="145.5" r="2.5" fill="#00DE8E"/>
<circle cx="255.5" cy="145.5" r="2.5" fill="#00DE8E"/>
<circle cx="266.5" cy="145.5" r="2.5" fill="#00DE8E"/>
<circle cx="277.5" cy="145.5" r="2.5" fill="#00DE8E"/>
<circle cx="288.5" cy="145.5" r="2.5" fill="#00DE8E"/>
<circle cx="299.5" cy="145.5" r="2.5" fill="#00DE8E"/>
<circle cx="310.5" cy="145.5" r="2.5" fill="#00DE8E"/>
<circle cx="321.5" cy="145.5" r="2.5" fill="#00DE8E"/>
<circle cx="332.5" cy="145.5" r="2.5" fill="#00DE8E"/>
<circle cx="343.5" cy="145.5" r="2.5" fill="#00DE8E"/>
<circle cx="354.5" cy="145.5" r="2.5" fill="#00DE8E"/>
<circle cx="365.5" cy="145.5" r="2.5" fill="#00DE8E"/>
<circle cx="376.5" cy="145.5" r="2.5" fill="#00DE8E"/>
<circle cx="387.5" cy="145.5" r="2.5" fill="#00DE8E"/>
<circle cx="398.5" cy="145.5" r="2.5" fill="#00DE8E"/>
<circle cx="409.5" cy="145.5" r="2.5" fill="#00DE8E"/>
<circle cx="2.5" cy="156.5" r="2.5" fill="#00DE8E"/>
<circle cx="13.5" cy="156.5" r="2.5" fill="#00DE8E"/>
<circle cx="24.5" cy="156.5" r="2.5" fill="#00DE8E"/>
<circle cx="35.5" cy="156.5" r="2.5" fill="#00DE8E"/>
<circle cx="46.5" cy="156.5" r="2.5" fill="#00DE8E"/>
<circle cx="57.5" cy="156.5" r="2.5" fill="#00DE8E"/>
<circle cx="68.5" cy="156.5" r="2.5" fill="#00DE8E"/>
<circle cx="79.5" cy="156.5" r="2.5" fill="#00DE8E"/>
<circle cx="90.5" cy="156.5" r="2.5" fill="#00DE8E"/>
<circle cx="101.5" cy="156.5" r="2.5" fill="#00DE8E"/>
<circle cx="112.5" cy="156.5" r="2.5" fill="#00DE8E"/>
<circle cx="123.5" cy="156.5" r="2.5" fill="#00DE8E"/>
<circle cx="134.5" cy="156.5" r="2.5" fill="#00DE8E"/>
<circle cx="145.5" cy="156.5" r="2.5" fill="#00DE8E"/>
<circle cx="156.5" cy="156.5" r="2.5" fill="#00DE8E"/>
<circle cx="167.5" cy="156.5" r="2.5" fill="#00DE8E"/>
<circle cx="178.5" cy="156.5" r="2.5" fill="#00DE8E"/>
<circle cx="189.5" cy="156.5" r="2.5" fill="#00DE8E"/>
<circle cx="200.5" cy="156.5" r="2.5" fill="#00DE8E"/>
<circle cx="211.5" cy="156.5" r="2.5" fill="#00DE8E"/>
<circle cx="222.5" cy="156.5" r="2.5" fill="#00DE8E"/>
<circle cx="233.5" cy="156.5" r="2.5" fill="#00DE8E"/>
<circle cx="244.5" cy="156.5" r="2.5" fill="#00DE8E"/>
<circle cx="255.5" cy="156.5" r="2.5" fill="#00DE8E"/>
<circle cx="266.5" cy="156.5" r="2.5" fill="#00DE8E"/>
<circle cx="277.5" cy="156.5" r="2.5" fill="#00DE8E"/>
<circle cx="288.5" cy="156.5" r="2.5" fill="#00DE8E"/>
<circle cx="299.5" cy="156.5" r="2.5" fill="#00DE8E"/>
<circle cx="310.5" cy="156.5" r="2.5" fill="#00DE8E"/>
<circle cx="321.5" cy="156.5" r="2.5" fill="#00DE8E"/>
<circle cx="332.5" cy="156.5" r="2.5" fill="#00DE8E"/>
<circle cx="343.5" cy="156.5" r="2.5" fill="#00DE8E"/>
<circle cx="354.5" cy="156.5" r="2.5" fill="#00DE8E"/>
<circle cx="365.5" cy="156.5" r="2.5" fill="#00DE8E"/>
<circle cx="376.5" cy="156.5" r="2.5" fill="#00DE8E"/>
<circle cx="387.5" cy="156.5" r="2.5" fill="#00DE8E"/>
<circle cx="398.5" cy="156.5" r="2.5" fill="#00DE8E"/>
<circle cx="409.5" cy="156.5" r="2.5" fill="#00DE8E"/>
<circle cx="2.5" cy="167.5" r="2.5" fill="#00DE8E"/>
<circle cx="13.5" cy="167.5" r="2.5" fill="#00DE8E"/>
<circle cx="24.5" cy="167.5" r="2.5" fill="#00DE8E"/>
<circle cx="35.5" cy="167.5" r="2.5" fill="#00DE8E"/>
<circle cx="46.5" cy="167.5" r="2.5" fill="#00DE8E"/>
<circle cx="57.5" cy="167.5" r="2.5" fill="#00DE8E"/>
<circle cx="68.5" cy="167.5" r="2.5" fill="#00DE8E"/>
<circle cx="79.5" cy="167.5" r="2.5" fill="#00DE8E"/>
<circle cx="90.5" cy="167.5" r="2.5" fill="#00DE8E"/>
<circle cx="101.5" cy="167.5" r="2.5" fill="#00DE8E"/>
<circle cx="112.5" cy="167.5" r="2.5" fill="#00DE8E"/>
<circle cx="123.5" cy="167.5" r="2.5" fill="#00DE8E"/>
<circle cx="134.5" cy="167.5" r="2.5" fill="#00DE8E"/>
<circle cx="145.5" cy="167.5" r="2.5" fill="#00DE8E"/>
<circle cx="156.5" cy="167.5" r="2.5" fill="#00DE8E"/>
<circle cx="167.5" cy="167.5" r="2.5" fill="#00DE8E"/>
<circle cx="178.5" cy="167.5" r="2.5" fill="#00DE8E"/>
<circle cx="189.5" cy="167.5" r="2.5" fill="#00DE8E"/>
<circle cx="200.5" cy="167.5" r="2.5" fill="#00DE8E"/>
<circle cx="211.5" cy="167.5" r="2.5" fill="#00DE8E"/>
<circle cx="222.5" cy="167.5" r="2.5" fill="#00DE8E"/>
<circle cx="233.5" cy="167.5" r="2.5" fill="#00DE8E"/>
<circle cx="244.5" cy="167.5" r="2.5" fill="#00DE8E"/>
<circle cx="255.5" cy="167.5" r="2.5" fill="#00DE8E"/>
<circle cx="266.5" cy="167.5" r="2.5" fill="#00DE8E"/>
<circle cx="277.5" cy="167.5" r="2.5" fill="#00DE8E"/>
<circle cx="288.5" cy="167.5" r="2.5" fill="#00DE8E"/>
<circle cx="299.5" cy="167.5" r="2.5" fill="#00DE8E"/>
<circle cx="310.5" cy="167.5" r="2.5" fill="#00DE8E"/>
<circle cx="321.5" cy="167.5" r="2.5" fill="#00DE8E"/>
<circle cx="332.5" cy="167.5" r="2.5" fill="#00DE8E"/>
<circle cx="343.5" cy="167.5" r="2.5" fill="#00DE8E"/>
<circle cx="354.5" cy="167.5" r="2.5" fill="#00DE8E"/>
<circle cx="365.5" cy="167.5" r="2.5" fill="#00DE8E"/>
<circle cx="376.5" cy="167.5" r="2.5" fill="#00DE8E"/>
<circle cx="387.5" cy="167.5" r="2.5" fill="#00DE8E"/>
<circle cx="398.5" cy="167.5" r="2.5" fill="#00DE8E"/>
<circle cx="409.5" cy="167.5" r="2.5" fill="#00DE8E"/>
<circle cx="2.5" cy="178.5" r="2.5" fill="#00DE8E"/>
<circle cx="13.5" cy="178.5" r="2.5" fill="#00DE8E"/>
<circle cx="24.5" cy="178.5" r="2.5" fill="#00DE8E"/>
<circle cx="35.5" cy="178.5" r="2.5" fill="#00DE8E"/>
<circle cx="46.5" cy="178.5" r="2.5" fill="#00DE8E"/>
<circle cx="57.5" cy="178.5" r="2.5" fill="#00DE8E"/>
<circle cx="68.5" cy="178.5" r="2.5" fill="#00DE8E"/>
<circle cx="79.5" cy="178.5" r="2.5" fill="#00DE8E"/>
<circle cx="90.5" cy="178.5" r="2.5" fill="#00DE8E"/>
<circle cx="101.5" cy="178.5" r="2.5" fill="#00DE8E"/>
<circle cx="112.5" cy="178.5" r="2.5" fill="#00DE8E"/>
<circle cx="123.5" cy="178.5" r="2.5" fill="#00DE8E"/>
<circle cx="134.5" cy="178.5" r="2.5" fill="#00DE8E"/>
<circle cx="145.5" cy="178.5" r="2.5" fill="#00DE8E"/>
<circle cx="156.5" cy="178.5" r="2.5" fill="#00DE8E"/>
<circle cx="167.5" cy="178.5" r="2.5" fill="#00DE8E"/>
<circle cx="178.5" cy="178.5" r="2.5" fill="#00DE8E"/>
<circle cx="189.5" cy="178.5" r="2.5" fill="#00DE8E"/>
<circle cx="200.5" cy="178.5" r="2.5" fill="#00DE8E"/>
<circle cx="211.5" cy="178.5" r="2.5" fill="#00DE8E"/>
<circle cx="222.5" cy="178.5" r="2.5" fill="#00DE8E"/>
<circle cx="233.5" cy="178.5" r="2.5" fill="#00DE8E"/>
<circle cx="244.5" cy="178.5" r="2.5" fill="#00DE8E"/>
<circle cx="255.5" cy="178.5" r="2.5" fill="#00DE8E"/>
<circle cx="266.5" cy="178.5" r="2.5" fill="#00DE8E"/>
<circle cx="277.5" cy="178.5" r="2.5" fill="#00DE8E"/>
<circle cx="288.5" cy="178.5" r="2.5" fill="#00DE8E"/>
<circle cx="299.5" cy="178.5" r="2.5" fill="#00DE8E"/>
<circle cx="310.5" cy="178.5" r="2.5" fill="#00DE8E"/>
<circle cx="321.5" cy="178.5" r="2.5" fill="#00DE8E"/>
<circle cx="332.5" cy="178.5" r="2.5" fill="#00DE8E"/>
<circle cx="343.5" cy="178.5" r="2.5" fill="#00DE8E"/>
<circle cx="354.5" cy="178.5" r="2.5" fill="#00DE8E"/>
<circle cx="365.5" cy="178.5" r="2.5" fill="#00DE8E"/>
<circle cx="376.5" cy="178.5" r="2.5" fill="#00DE8E"/>
<circle cx="387.5" cy="178.5" r="2.5" fill="#00DE8E"/>
<circle cx="398.5" cy="178.5" r="2.5" fill="#00DE8E"/>
<circle cx="409.5" cy="178.5" r="2.5" fill="#00DE8E"/>
<circle cx="2.5" cy="189.5" r="2.5" fill="#00DE8E"/>
<circle cx="13.5" cy="189.5" r="2.5" fill="#00DE8E"/>
<circle cx="24.5" cy="189.5" r="2.5" fill="#00DE8E"/>
<circle cx="35.5" cy="189.5" r="2.5" fill="#00DE8E"/>
<circle cx="46.5" cy="189.5" r="2.5" fill="#00DE8E"/>
<circle cx="57.5" cy="189.5" r="2.5" fill="#00DE8E"/>
<circle cx="68.5" cy="189.5" r="2.5" fill="#00DE8E"/>
<circle cx="79.5" cy="189.5" r="2.5" fill="#00DE8E"/>
<circle cx="90.5" cy="189.5" r="2.5" fill="#00DE8E"/>
<circle cx="101.5" cy="189.5" r="2.5" fill="#00DE8E"/>
<circle cx="112.5" cy="189.5" r="2.5" fill="#00DE8E"/>
<circle cx="123.5" cy="189.5" r="2.5" fill="#00DE8E"/>
<circle cx="134.5" cy="189.5" r="2.5" fill="#00DE8E"/>
<circle cx="145.5" cy="189.5" r="2.5" fill="#00DE8E"/>
<circle cx="156.5" cy="189.5" r="2.5" fill="#00DE8E"/>
<circle cx="167.5" cy="189.5" r="2.5" fill="#00DE8E"/>
<circle cx="178.5" cy="189.5" r="2.5" fill="#00DE8E"/>
<circle cx="189.5" cy="189.5" r="2.5" fill="#00DE8E"/>
<circle cx="200.5" cy="189.5" r="2.5" fill="#00DE8E"/>
<circle cx="211.5" cy="189.5" r="2.5" fill="#00DE8E"/>
<circle cx="222.5" cy="189.5" r="2.5" fill="#00DE8E"/>
<circle cx="233.5" cy="189.5" r="2.5" fill="#00DE8E"/>
<circle cx="244.5" cy="189.5" r="2.5" fill="#00DE8E"/>
<circle cx="255.5" cy="189.5" r="2.5" fill="#00DE8E"/>
<circle cx="266.5" cy="189.5" r="2.5" fill="#00DE8E"/>
<circle cx="277.5" cy="189.5" r="2.5" fill="#00DE8E"/>
<circle cx="288.5" cy="189.5" r="2.5" fill="#00DE8E"/>
<circle cx="299.5" cy="189.5" r="2.5" fill="#00DE8E"/>
<circle cx="310.5" cy="189.5" r="2.5" fill="#00DE8E"/>
<circle cx="321.5" cy="189.5" r="2.5" fill="#00DE8E"/>
<circle cx="332.5" cy="189.5" r="2.5" fill="#00DE8E"/>
<circle cx="343.5" cy="189.5" r="2.5" fill="#00DE8E"/>
<circle cx="354.5" cy="189.5" r="2.5" fill="#00DE8E"/>
<circle cx="365.5" cy="189.5" r="2.5" fill="#00DE8E"/>
<circle cx="376.5" cy="189.5" r="2.5" fill="#00DE8E"/>
<circle cx="387.5" cy="189.5" r="2.5" fill="#00DE8E"/>
<circle cx="398.5" cy="189.5" r="2.5" fill="#00DE8E"/>
<circle cx="409.5" cy="189.5" r="2.5" fill="#00DE8E"/>
</g>
<defs>
<clipPath id="clip0_7_262">
<rect width="420" height="198" fill="white"/>
</clipPath>
</defs>
</svg>
