<svg width="110" height="68" viewBox="0 0 160 68" fill="none" xmlns="http://www.w3.org/2000/svg">
<path d="M0 1.91459H11.7697C14.8433 1.91459 17.2422 2.9038 18.9664 4.88221C20.7156 6.86063 21.5903 9.70061 21.5903 13.4022C21.5903 15.8911 21.1654 18.0131 20.3158 19.7682C19.4662 21.5232 18.2668 22.8315 16.7175 23.6931L21.3654 35.3721H14.5434L10.3828 24.8897H6.6345V35.3721H0V1.91459ZM10.6077 17.7579C11.9321 17.7579 12.9566 17.4388 13.6813 16.8006C14.406 16.1305 14.7683 14.9977 14.7683 13.4022C14.7683 11.7428 14.406 10.61 13.6813 10.0038C12.9816 9.36556 11.9571 9.04646 10.6077 9.04646H6.6345V17.7579H10.6077Z" fill="#222222"/>
<path d="M29.5159 36.0901C27.2669 36.0901 25.4427 35.404 24.0433 34.0319C22.669 32.6279 21.9818 30.6814 21.9818 28.1924C21.9818 25.6077 22.644 23.6293 23.9684 22.2572C25.3178 20.8531 27.2419 20.1511 29.7408 20.1511C30.7153 20.1511 31.6899 20.2947 32.6644 20.5819C33.639 20.8372 34.4761 21.1882 35.1758 21.6349V21.1563C35.1758 18.6992 33.6015 17.4707 30.4529 17.4707C28.2539 17.4707 26.2423 18.0131 24.4182 19.0981V13.3064C25.2178 12.8278 26.2673 12.4449 27.5667 12.1577C28.8662 11.8386 30.2156 11.679 31.6149 11.679C34.9634 11.679 37.4873 12.5406 39.1865 14.2637C40.9107 15.955 41.7728 18.3322 41.7728 21.3956V35.3721H35.5881V33.4097C34.9134 34.2393 34.0638 34.8935 33.0393 35.3721C32.0147 35.8508 30.8403 36.0901 29.5159 36.0901ZM31.465 30.9207C32.2396 30.9207 32.9643 30.7292 33.639 30.3463C34.3137 29.9315 34.826 29.405 35.1758 28.7668V26.7565C34.1013 25.8311 32.8769 25.3684 31.5025 25.3684C30.6279 25.3684 29.9532 25.6077 29.4784 26.0863C29.0036 26.565 28.7662 27.267 28.7662 28.1924C28.7662 29.054 28.9911 29.7241 29.4409 30.2027C29.9157 30.6814 30.5904 30.9207 31.465 30.9207Z" fill="#222222"/>
<path d="M48.4738 9.33365C47.4743 9.33365 46.6371 8.91882 45.9624 8.08916C45.2878 7.2595 44.9504 6.20648 44.9504 4.93008C44.9504 3.68559 45.2878 2.64852 45.9624 1.81886C46.6371 0.957296 47.4743 0.526512 48.4738 0.526512C49.4484 0.526512 50.273 0.957296 50.9477 1.81886C51.6474 2.64852 51.9972 3.68559 51.9972 4.93008C51.9972 6.17457 51.6474 7.22759 50.9477 8.08916C50.273 8.91882 49.4484 9.33365 48.4738 9.33365ZM45.1753 12.397H51.7723V35.3721H45.1753V12.397Z" fill="#222222"/>
<path d="M55.3827 0H61.9797V14.7424C62.7794 13.7213 63.6915 12.9554 64.716 12.4449C65.7655 11.9343 66.865 11.679 68.0145 11.679C70.5384 11.679 72.4 12.5246 73.5995 14.2159C74.8239 15.8752 75.4361 18.1408 75.4361 21.0127V35.3721H68.8391V22.1136C68.8391 19.5289 67.9145 18.2365 66.0654 18.2365C65.2158 18.2365 64.4411 18.4918 63.7414 19.0023C63.0417 19.481 62.4545 20.2309 61.9797 21.252V35.3721H55.3827V0Z" fill="#222222"/>
<path d="M84.862 36.0901C82.613 36.0901 80.7888 35.404 79.3894 34.0319C78.0151 32.6279 77.3279 30.6814 77.3279 28.1924C77.3279 25.6077 77.9901 23.6293 79.3145 22.2572C80.6639 20.8531 82.588 20.1511 85.0869 20.1511C86.0614 20.1511 87.036 20.2947 88.0105 20.5819C88.9851 20.8372 89.8222 21.1882 90.5219 21.6349V21.1563C90.5219 18.6992 88.9476 17.4707 85.799 17.4707C83.6 17.4707 81.5884 18.0131 79.7643 19.0981V13.3064C80.5639 12.8278 81.6134 12.4449 82.9128 12.1577C84.2123 11.8386 85.5617 11.679 86.961 11.679C90.3095 11.679 92.8334 12.5406 94.5326 14.2637C96.2568 15.955 97.1189 18.3322 97.1189 21.3956V35.3721H90.9342V33.4097C90.2595 34.2393 89.4099 34.8935 88.3854 35.3721C87.3608 35.8508 86.1864 36.0901 84.862 36.0901ZM86.8111 30.9207C87.5857 30.9207 88.3104 30.7292 88.9851 30.3463C89.6598 29.9315 90.1721 29.405 90.5219 28.7668V26.7565C89.4474 25.8311 88.223 25.3684 86.8486 25.3684C85.974 25.3684 85.2993 25.6077 84.8245 26.0863C84.3497 26.565 84.1123 27.267 84.1123 28.1924C84.1123 29.054 84.3372 29.7241 84.787 30.2027C85.2618 30.6814 85.9365 30.9207 86.8111 30.9207Z" fill="#222222"/>
<path d="M100.297 12.397H106.669V14.9338C107.443 13.8489 108.38 13.0352 109.48 12.4927C110.579 11.9503 111.729 11.679 112.928 11.679C115.452 11.679 117.314 12.5246 118.513 14.2159C119.738 15.8752 120.35 18.1408 120.35 21.0127V35.3721H113.753V22.1136C113.753 19.5289 112.828 18.2365 110.979 18.2365C110.13 18.2365 109.355 18.4918 108.655 19.0023C107.956 19.481 107.368 20.2309 106.894 21.252V35.3721H100.297V12.397Z" fill="#222222"/>
<path d="M0 33.8245H6.6345V67.282H0V33.8245Z" fill="#222222"/>
<path d="M18.2768 68C16.8275 68 15.3156 67.8085 13.7414 67.4256C12.1671 67.0746 10.9176 66.5641 9.99305 65.8939V59.7194C11.0176 60.4852 12.242 61.1234 13.6664 61.634C15.1157 62.1126 16.4401 62.3519 17.6396 62.3519C18.5142 62.3519 19.1514 62.2722 19.5512 62.1126C19.951 61.9531 20.151 61.634 20.151 61.1553C20.151 60.7724 20.0135 60.4693 19.7386 60.2459C19.4888 59.9906 19.014 59.7353 18.3143 59.4801C17.6396 59.1929 16.8524 58.8897 15.9529 58.5706C14.4285 57.9962 13.2291 57.4059 12.3545 56.7996C11.4799 56.1933 10.8302 55.4275 10.4054 54.5021C9.98055 53.5767 9.76815 52.412 9.76815 51.008C9.76815 48.519 10.5303 46.6682 12.0546 45.4557C13.6039 44.2112 15.7155 43.5889 18.3893 43.5889C19.6887 43.5889 21.0506 43.7644 22.4749 44.1154C23.9243 44.4664 25.0113 44.9291 25.7359 45.5035V51.5824C24.9863 50.9442 23.9867 50.4176 22.7373 50.0028C21.5128 49.588 20.3634 49.3806 19.2888 49.3806C18.4392 49.3806 17.777 49.4923 17.3022 49.7156C16.8275 49.9071 16.5901 50.2581 16.5901 50.7687C16.5901 51.2473 16.8275 51.6143 17.3022 51.8695C17.777 52.1248 18.6266 52.4439 19.8511 52.8268C20.6507 53.0821 20.9881 53.1938 20.8631 53.1619C22.4624 53.7044 23.6994 54.3106 24.574 54.9808C25.4486 55.6509 26.0608 56.4486 26.4106 57.374C26.7855 58.2675 26.9729 59.4162 26.9729 60.8203C26.9729 63.0221 26.2232 64.7771 24.7239 66.0854C23.2496 67.3618 21.1005 68 18.2768 68Z" fill="#222222"/>
<path d="M30.1136 31.9099H36.7106V53.5448L42.6329 44.3069H50.2045L43.0452 55.4115L51.179 67.282H43.6075L36.7106 57.1825V67.282H30.1136V31.9099Z" fill="#222222"/>
<path d="M59.056 68C56.8071 68 54.9829 67.3139 53.5835 65.9418C52.2091 64.5378 51.5219 62.5913 51.5219 60.1023C51.5219 57.5176 52.1841 55.5392 53.5085 54.1671C54.8579 52.763 56.7821 52.061 59.2809 52.061C60.2555 52.061 61.2301 52.2046 62.2046 52.4918C63.1792 52.7471 64.0163 53.0981 64.716 53.5448V53.0662C64.716 50.6091 63.1417 49.3806 59.9931 49.3806C57.7941 49.3806 55.7825 49.923 53.9583 51.008V45.2163C54.758 44.7377 55.8075 44.3548 57.1069 44.0676C58.4063 43.7485 59.7557 43.5889 61.1551 43.5889C64.5036 43.5889 67.0274 44.4505 68.7267 46.1736C70.4509 47.8649 71.313 50.2421 71.313 53.3055V67.282H65.1283V65.3196C64.4536 66.1492 63.604 66.8034 62.5795 67.282C61.5549 67.7607 60.3804 68 59.056 68ZM61.0052 62.8306C61.7798 62.8306 62.5045 62.6391 63.1792 62.2562C63.8539 61.8414 64.3661 61.3149 64.716 60.6767V58.6664C63.6415 57.741 62.417 57.2783 61.0426 57.2783C60.168 57.2783 59.4933 57.5176 59.0186 57.9962C58.5438 58.4749 58.3064 59.1769 58.3064 60.1023C58.3064 60.9639 58.5313 61.634 58.9811 62.1126C59.4559 62.5913 60.1306 62.8306 61.0052 62.8306Z" fill="#222222"/>
<path d="M75.0153 44.3069H81.3875V46.8437C82.1621 45.7588 83.0992 44.9451 84.1987 44.4026C85.2982 43.8602 86.4477 43.5889 87.6471 43.5889C90.171 43.5889 92.0327 44.4345 93.2321 46.1258C94.4566 47.7851 95.0688 50.0507 95.0688 52.9226V67.282H88.4718V54.0235C88.4718 51.4388 87.5472 50.1464 85.698 50.1464C84.8484 50.1464 84.0738 50.4017 83.3741 50.9122C82.6744 51.3909 82.0871 52.1408 81.6124 53.1619V67.282H75.0153V44.3069Z" fill="#222222"/>
<path d="M107.593 68C105.718 68 104.057 67.5054 102.607 66.5162C101.158 65.4951 100.033 64.0751 99.2338 62.2562C98.4342 60.4054 98.0343 58.2675 98.0343 55.8423C98.0343 53.4491 98.4342 51.3271 99.2338 49.4763C100.033 47.5936 101.145 46.1417 102.57 45.1206C104.019 44.0995 105.693 43.5889 107.593 43.5889C108.842 43.5889 109.991 43.8123 111.041 44.259C112.09 44.7058 112.99 45.344 113.74 46.1736V31.9099H120.337V67.282H113.965V64.9845C112.29 66.9948 110.166 68 107.593 68ZM109.317 61.4904C110.316 61.4904 111.216 61.1713 112.016 60.5331C112.815 59.863 113.39 58.9695 113.74 57.8526V53.7841C113.39 52.6673 112.815 51.7898 112.016 51.1516C111.216 50.4815 110.316 50.1464 109.317 50.1464C107.967 50.1464 106.88 50.657 106.056 51.6781C105.231 52.6992 104.819 54.0873 104.819 55.8423C104.819 57.5974 105.231 58.9855 106.056 60.0066C106.88 60.9958 107.967 61.4904 109.317 61.4904Z" fill="#222222"/>
<path d="M130.472 68C128.223 68 126.399 67.3139 124.999 65.9418C123.625 64.5378 122.938 62.5913 122.938 60.1023C122.938 57.5176 123.6 55.5392 124.924 54.1671C126.274 52.763 128.198 52.061 130.697 52.061C131.671 52.061 132.646 52.2046 133.62 52.4918C134.595 52.7471 135.432 53.0981 136.132 53.5448V53.0662C136.132 50.6091 134.557 49.3806 131.409 49.3806C129.21 49.3806 127.198 49.923 125.374 51.008V45.2163C126.174 44.7377 127.223 44.3548 128.523 44.0676C129.822 43.7485 131.172 43.5889 132.571 43.5889C135.919 43.5889 138.443 44.4505 140.142 46.1736C141.867 47.8649 142.729 50.2421 142.729 53.3055V67.282H136.544V65.3196C135.869 66.1492 135.02 66.8034 133.995 67.282C132.971 67.7607 131.796 68 130.472 68ZM132.421 62.8306C133.196 62.8306 133.92 62.6391 134.595 62.2562C135.27 61.8414 135.782 61.3149 136.132 60.6767V58.6664C135.057 57.741 133.833 57.2783 132.458 57.2783C131.584 57.2783 130.909 57.5176 130.434 57.9962C129.96 58.4749 129.722 59.1769 129.722 60.1023C129.722 60.9639 129.947 61.634 130.397 62.1126C130.872 62.5913 131.546 62.8306 132.421 62.8306Z" fill="#222222"/>
<path d="M146.431 44.3069H152.803V47.1788C153.503 46.1577 154.49 45.3759 155.764 44.8334C157.039 44.259 158.451 43.9718 160 43.9718V50.4336C158.351 50.4336 156.889 50.7367 155.614 51.343C154.365 51.9493 153.503 52.8587 153.028 54.0713V67.282H146.431V44.3069Z" fill="#222222"/>
</svg>
