<svg width="75" height="48" viewBox="0 0 75 48" fill="none" xmlns="http://www.w3.org/2000/svg">
<path d="M1.88 0.763977H1.38V1.26398V46V46.5H1.88H13.208H13.708V46V32.484H19.3009L26.266 46.226L26.4049 46.5H26.712H38.36H39.175L38.8057 45.7735L31.1062 30.6228C33.6094 29.433 35.5764 27.691 36.9933 25.3989C38.502 22.9583 39.244 20.0256 39.244 16.624C39.244 11.5694 37.7148 7.62114 34.5968 4.85883C31.5347 2.10806 27.3056 0.763977 21.976 0.763977H1.88ZM24.9494 12.4868L24.9576 12.4927L24.966 12.4982C26.001 13.1763 26.596 14.4844 26.596 16.624C26.596 18.6622 26.0091 19.9911 24.9514 20.7597C23.83 21.531 22.1969 21.948 19.992 21.948H13.708V11.3H19.992C22.2469 11.3 23.8754 11.7197 24.9494 12.4868ZM42.6202 44.5984L42.6201 44.5985L42.628 44.6046C45.1262 46.5228 48.357 47.46 52.2765 47.46C54.5843 47.46 56.6496 47.1335 58.4643 46.4695C59.8694 45.9555 61.0982 45.2906 62.1445 44.4713V46V46.5H62.6445H73.2045H73.7045V46V27.312C73.7045 23.0805 72.1753 19.7484 69.0963 17.3819C66.0699 14.9802 61.6307 13.82 55.8605 13.82C53.4429 13.82 51.1087 14.0357 48.8586 14.4681C46.6175 14.8563 44.7796 15.378 43.3603 16.0433L43.0725 16.1781V16.496V24.24V25.0244L43.7836 24.6932C46.8262 23.2761 50.1879 22.564 53.8765 22.564C56.5299 22.564 58.4359 22.9723 59.6638 23.7226C60.8129 24.4249 61.4015 25.4454 61.4386 26.849C60.3612 26.3878 59.1334 26.0177 57.759 25.7354C56.0611 25.344 54.3614 25.148 52.6605 25.148C48.328 25.148 44.914 26.1004 42.4891 28.076C40.0887 30.0237 38.9125 32.8248 38.9125 36.4C38.9125 39.8613 40.1411 42.6152 42.6202 44.5984ZM59.1065 38.8262C58.0235 39.3063 56.858 39.548 55.6045 39.548C54.1785 39.548 53.1541 39.2423 52.4635 38.6996C51.8309 38.1699 51.4965 37.4261 51.4965 36.4C51.4965 35.2819 51.856 34.5025 52.5223 33.9764C53.213 33.4312 54.239 33.124 55.6685 33.124C57.8277 33.124 59.7469 33.6678 61.4405 34.7498V37.006C60.9057 37.7194 60.1357 38.3296 59.1065 38.8262Z" fill="#00DE8E" stroke="#222222"/>
</svg>
